<svg width="300" height="300" viewBox="0 0 300 300" fill="none" xmlns="http://www.w3.org/2000/svg">
<path d="M82.5126 47.2061L23.0233 59.1896C20.6846 59.6607 19.0045 61.7184 19.0107 64.1041L19.483 245.955C19.4916 249.251 22.6321 251.638 25.8104 250.762L84.8274 234.511C86.9969 233.914 88.5 231.941 88.5 229.691V52.1076C88.5 48.9496 85.6085 46.5825 82.5126 47.2061Z" fill="black" stroke="black"/>
<path d="M182.632 61.6011L121.632 47.425C118.497 46.6964 115.5 49.0766 115.5 52.2952V231.946C115.5 234.309 117.154 236.35 119.466 236.838L180.466 249.725C183.575 250.382 186.5 248.011 186.5 244.833V66.4713C186.5 64.1459 184.897 62.1274 182.632 61.6011Z" fill="black" stroke="black"/>
<path d="M275.472 50.2668L216.461 62.6676C214.151 63.153 212.496 65.1874 212.489 67.5476L212.017 247.612C212.008 250.86 215.05 253.254 218.205 252.482L277.688 237.932C279.926 237.385 281.5 235.379 281.5 233.076V55.1599C281.5 51.9848 278.579 49.6138 275.472 50.2668Z" fill="black" stroke="black"/>
</svg>
